<svg width="64" height="64" viewBox="0 0 64 64" fill="none" xmlns="http://www.w3.org/2000/svg">
<path fill-rule="evenodd" clip-rule="evenodd" d="M50.8467 63.4728C51.3115 63.7489 51.8271 63.8869 52.3389 63.8869H52.3779C53.9834 63.8869 55.2764 62.5818 55.2764 60.9881C55.2764 60.4987 55.1631 60.0469 54.9521 59.6453L47.6357 39.0775L62.792 27.0179C63.7607 26.2524 64.124 24.9598 63.7217 23.7928C63.3193 22.6257 62.2178 21.8477 60.9873 21.8477H42.1396L34.71 1.99512C34.2803 0.865723 33.2021 0.112793 31.999 0.112793C30.792 0.112793 29.7139 0.865723 29.2881 1.99512L21.8584 21.8477H3.02245C1.79199 21.8477 0.702142 22.6257 0.28808 23.7928C-0.125983 24.9598 0.249017 26.2524 1.20214 27.0179L16.3857 39.09L9.42089 59.5324C9.03417 60.6869 9.39746 61.9543 10.3389 62.7198C11.2803 63.4854 12.5967 63.5858 13.6396 62.9708L31.9873 52.1536L50.8467 63.4728ZM33.4951 46.2932C33.0303 46.0171 32.5146 45.8791 31.999 45.8791C31.4873 45.8791 30.9834 46.0171 30.5303 46.2806L17.4443 53.9983L22.5498 39.0273C22.9404 37.8728 22.5615 36.5928 21.6084 35.8273L11.3193 27.6454H23.8701C25.0732 27.6454 26.1514 26.8924 26.5771 25.763L31.999 11.2814L37.4209 25.763C37.835 26.8924 38.9287 27.6454 40.1318 27.6454H52.6826L42.3896 35.8273C41.4248 36.5928 41.0498 37.8979 41.4639 39.0649L46.8975 54.3371L33.4951 46.2932Z" fill="white"/>
</svg>
