<svg width="64" height="66" viewBox="0 0 64 66" fill="none" xmlns="http://www.w3.org/2000/svg">
<path d="M63.8324 24.1442C63.4235 22.9591 62.3232 22.1624 61.0864 22.1624H42.1805L34.7239 1.92466C34.2984 0.769942 33.2112 0.00690842 31.9978 0.00690842C30.7844 0.00690842 29.6974 0.769942 29.2751 1.92466L21.8185 22.1624H2.90942C1.67271 22.1624 0.572411 22.9557 0.163449 24.1442C-0.245512 25.3294 0.130198 26.6461 1.09762 27.4294L16.3333 39.7395L9.33882 60.5749C8.94661 61.743 9.31211 63.0396 10.2564 63.8195C11.1972 64.5995 12.5203 64.7008 13.5709 64.0727L31.9814 53.0456L50.9139 64.5791C51.3759 64.8627 51.8946 65.0011 52.4098 65.0011C52.4131 65.0011 52.4198 65.0011 52.4265 65.0011C54.0288 64.9471 55.3485 63.681 55.3485 62.0468C55.3485 61.554 55.2321 61.088 55.0194 60.6794L47.6825 39.7225L62.8982 27.4292C63.8655 26.6493 64.2413 25.3291 63.8324 24.144V24.1442Z" fill="white"/>
</svg>
